<svg xmlns="http://www.w3.org/2000/svg" xmlns:svg="http://www.w3.org/2000/svg" id="svg7879" width="45" height="45" version="1.1"><defs id="defs7881"><filter id="filter11482" color-interpolation-filters="sRGB"><feGaussianBlur id="feGaussianBlur11484" stdDeviation=".8"/></filter></defs><metadata id="metadata7884"/><g id="layer1" transform="matrix(0.075,0,0,0.075,-7.3474464e-7,4.4688022e-8)"><g id="Layer_0-9" transform="matrix(2.0773188,0,0,2.0773188,-1.2112294,-1.2112255)"><radialGradient id="SVGID_1_-7" cx="31.595" cy="258.404" r="34.375" gradientTransform="matrix(4.0989,0,0,4.0989,15.4923,-914.1874)" gradientUnits="userSpaceOnUse"><stop id="stop6936-4" offset="0" stop-color="#fff" stop-opacity="1"/><stop id="stop6938-3" offset="1" stop-color="#e0e7f5" stop-opacity="1"/></radialGradient><g id="g11486" transform="matrix(3.9335742,0,0,3.8074981,-425.36823,-407.08722)"><g id="Layer_0" transform="matrix(1.0127217,0,0,0.99982507,-16.974037,7.2462071)"><radialGradient id="SVGID_1_" cx="31.595" cy="258.404" r="34.375" gradientTransform="matrix(4.0989,0,0,4.0989,15.4923,-914.1874)" gradientUnits="userSpaceOnUse"><stop id="stop11364" offset="0" stop-color="#0f0" stop-opacity="1"/><stop id="stop11374" offset=".25" stop-color="#77393d" stop-opacity="1"/><stop id="stop11372" offset=".5" stop-color="#ef737a" stop-opacity="1"/><stop id="stop6938" offset="1" stop-color="#e0e7f5" stop-opacity="1"/></radialGradient><rect id="rect11328" width="72.505" height="75.872" x="123.687" y="99.842" fill="red" fill-opacity=".098" fill-rule="nonzero" stroke="none"/></g><g id="g5592" transform="matrix(0.93097943,0,0,0.93097943,8.3329102,7.9308294)"><g id="g11350" fill="red" fill-opacity="1" transform="matrix(1.0777604,0,0,1.0640355,-9.4760071,-7.485908)"><rect id="rect11330" width="6.5" height="60.108" x="-1.936" y="175.02" fill="red" fill-opacity="1" fill-rule="nonzero" stroke="none" ry="2.911" transform="matrix(0.70256114,-0.71162339,0.70256114,0.71162339,0,0)"/><rect id="rect11330-0" width="6.5" height="60.108" x="-208.324" y="-31.368" fill="red" fill-opacity="1" fill-rule="nonzero" stroke="none" ry="2.911" transform="matrix(-0.70256116,-0.71162337,-0.70256116,0.71162337,0,0)"/></g><g id="g11408" fill="#e10000" fill-opacity="1" transform="matrix(0.94420086,0,0,0.93217681,-74.103122,24.457004)"><radialGradient id="radialGradient11410" cx="31.595" cy="258.404" r="34.375" gradientTransform="matrix(4.0989,0,0,4.0989,15.4923,-914.1874)" gradientUnits="userSpaceOnUse"><stop id="stop11412" offset="0" stop-color="#0f0" stop-opacity="1"/><stop id="stop11414" offset=".25" stop-color="#77393d" stop-opacity="1"/><stop id="stop11416" offset=".5" stop-color="#ef737a" stop-opacity="1"/><stop id="stop11418" offset="1" stop-color="#e0e7f5" stop-opacity="1"/></radialGradient><g id="g11422" fill="#e10000" fill-opacity="1" transform="matrix(1.1414525,0,0,1.1414525,68.446364,-34.267009)"><path id="rect11424" fill="#e10000" fill-opacity="1" fill-rule="nonzero" stroke="none" d="m 289.03125,300 -40.3125,40.3125 c -2.72028,2.72028 -2.72028,7.09222 0,9.8125 l 1.15625,1.15625 c 2.72028,2.72028 7.09222,2.72028 9.8125,0 L 300,310.96875 l 40.3125,40.3125 c 2.72028,2.72028 7.09222,2.72028 9.8125,0 l 1.15625,-1.15625 c 2.72028,-2.72028 2.72028,-7.09222 0,-9.8125 L 310.96875,300 c -0.42263,0.47245 -21.9375,0 -21.9375,0 z" filter="url(#filter11482)" transform="matrix(0.4164366,0,0,0.42180817,20.069016,18.457551)"/></g></g></g></g></g></g></svg>