<svg xmlns="http://www.w3.org/2000/svg" xmlns:svg="http://www.w3.org/2000/svg" id="svg7879" width="45" height="45" version="1.1"><metadata id="metadata7884"/><g id="layer1" transform="scale(0.075,0.075)"><path id="path2987" fill="#000" fill-opacity=".196" d="M 6e-7,299.99993 6e-7,0 300.00001,0 600,0 600,299.99993 600,600 300.00001,600 3.6e-6,600 z"/><path id="path7854" fill="#fff" fill-opacity="1" d="m 360.00001,425.27115 0,-63.99997 63.99999,0 c 69.57849,0 96,-16.5134 96,-59.99998 0,-43.4866 -26.42151,-60 -96,-60 l -63.99999,0 0,-63.99998 c 0,-69.57855 -16.51339,-95.999976 -60.00001,-95.999976 -43.48661,0 -59.99999,26.421426 -59.99999,95.999976 l 0,63.99998 -64,0 c -69.57848,0 -96.000015,16.5134 -96.000015,60 0,43.48658 26.421535,59.99998 96.000015,59.99998 l 64,0 0,63.99997 c 0,69.57856 17.14897,93.45761 60.63558,93.45761 45.26657,-0.24582 59.05819,-28.02608 59.36442,-93.45761 z"/></g></svg>